<svg width="184" height="91" xmlns="http://www.w3.org/2000/svg"><g fill="none" fill-rule="evenodd"><g fill="#243C47" stroke="#243D48" stroke-width=".2"><path d="M45.545 1v19.523H43.64V4.91l-7.384 13.134h-.931L27.94 4.993v15.53h-1.905V1.006h1.636l8.162 14.472 8.08-14.472z"/><path d="M68.056 7.686c0 4.157-2.959 6.667-7.834 6.667h-5.148v6.17H53.05V1h7.175c4.873-.006 7.832 2.504 7.832 6.686Zm-2.028 0c0-3.122-2.026-4.907-5.861-4.907h-5.093v9.762h5.093c3.835 0 5.865-1.786 5.865-4.855h-.004ZM84.63 15.303H73.955l-2.301 5.22h-2.099L78.316 1h1.998l8.752 19.523h-2.138l-2.299-5.22Zm-.73-1.67L79.304 3.144l-4.61 10.489H83.9Z" fill-rule="nonzero"/><path d="M97.09 2.784h-6.523V1h15.007v1.784h-6.522v17.739H97.09zM125.083 1v19.523h-2.06v-9.011h-12.361v9.011h-2.087V1.006h2.087v8.698h12.36V1zM139.628 13.769v6.754h-2.078v-6.754L129.585 1h2.247l6.83 10.965 6.825-10.959h2.106z"/><path d="M17.358 5.684a8.741 8.741 0 0 0-3.211-3.446A8.754 8.754 0 0 0 9.546 1a8.743 8.743 0 0 0-4.619 1.255 8.797 8.797 0 0 0-3.231 3.485 10.691 10.691 0 0 0-1.17 5.028c-.03 1.763.4 3.503 1.243 5.041a9.018 9.018 0 0 0 3.445 3.459 9.98 9.98 0 0 0 5.01 1.253 9.994 9.994 0 0 0 4.02-.814 8.123 8.123 0 0 0 3.088-2.325l.044-.057-1.147-1.313-.061.078a6.552 6.552 0 0 1-2.56 1.957 8.353 8.353 0 0 1-3.347.67 8.24 8.24 0 0 1-3.948-.943 7.106 7.106 0 0 1-2.776-2.655 8.008 8.008 0 0 1-1.093-3.837H18.49l.042-.588a10.575 10.575 0 0 0-1.173-5.01ZM2.484 9.706a8.217 8.217 0 0 1 1.071-3.544 6.736 6.736 0 0 1 2.49-2.492 6.992 6.992 0 0 1 3.5-.883C12 2.74 14.29 4.034 15.556 6.183a7.68 7.68 0 0 1 1.055 3.523H2.484Z" fill-rule="nonzero"/></g><path d="m1.537 90.108 4.528-12.926H4.528L0 90.108h1.537Zm14.302-1.372c1.024 0 1.934-.2 2.73-.597a4.418 4.418 0 0 0 1.853-1.688c.439-.727.658-1.566.658-2.518 0-.951-.22-1.79-.658-2.518a4.418 4.418 0 0 0-1.853-1.688c-.796-.398-1.706-.597-2.73-.597h-4.2v9.606h4.2Zm-.083-1.51h-2.332V80.64h2.332c.705 0 1.324.135 1.86.405.535.27.946.654 1.235 1.152.288.499.432 1.077.432 1.736s-.144 1.237-.432 1.736c-.289.499-.7.883-1.235 1.153-.536.27-1.155.404-1.86.404Zm12.235 1.647c.979 0 1.862-.213 2.648-.638a4.74 4.74 0 0 0 1.853-1.763c.448-.75.672-1.597.672-2.539 0-.942-.224-1.788-.672-2.538a4.74 4.74 0 0 0-1.853-1.764c-.786-.425-1.669-.638-2.648-.638-.979 0-1.861.213-2.648.638a4.725 4.725 0 0 0-1.853 1.77c-.448.755-.672 1.599-.672 2.532s.224 1.777.672 2.532a4.725 4.725 0 0 0 1.853 1.77c.787.425 1.67.638 2.648.638Zm0-1.564c-.64 0-1.217-.144-1.729-.433a3.126 3.126 0 0 1-1.207-1.207 3.46 3.46 0 0 1-.44-1.736c0-.64.147-1.219.44-1.736.292-.517.695-.92 1.207-1.207a3.465 3.465 0 0 1 1.73-.432c.64 0 1.216.144 1.728.432.512.288.915.69 1.208 1.207a3.46 3.46 0 0 1 .439 1.736 3.46 3.46 0 0 1-.44 1.736c-.292.517-.695.92-1.207 1.207a3.465 3.465 0 0 1-1.729.433Zm12.043 1.564c.787 0 1.507-.137 2.161-.412a4.382 4.382 0 0 0 1.654-1.193l-1.153-1.098c-.695.76-1.55 1.139-2.566 1.139-.659 0-1.249-.144-1.77-.433a3.114 3.114 0 0 1-1.221-1.2c-.293-.512-.44-1.093-.44-1.743 0-.65.147-1.23.44-1.743.292-.512.7-.912 1.22-1.2.522-.288 1.112-.432 1.771-.432 1.015 0 1.87.375 2.566 1.125l1.153-1.084a4.394 4.394 0 0 0-1.647-1.194c-.65-.275-1.368-.412-2.154-.412-.97 0-1.846.213-2.628.638a4.753 4.753 0 0 0-1.846 1.764c-.448.75-.672 1.596-.672 2.538 0 .942.222 1.789.665 2.539a4.704 4.704 0 0 0 1.84 1.763c.781.425 1.657.638 2.627.638Zm9.983 0c.841 0 1.555-.128 2.14-.384.586-.256 1.023-.6 1.31-1.03.289-.43.433-.91.433-1.44 0-.622-.162-1.116-.487-1.482a3.008 3.008 0 0 0-1.173-.817 12.996 12.996 0 0 0-1.757-.514 16.673 16.673 0 0 1-1.235-.343 2.132 2.132 0 0 1-.748-.412.856.856 0 0 1-.295-.672c0-.394.172-.71.515-.947.343-.238.867-.357 1.571-.357.43 0 .874.064 1.331.192a5.55 5.55 0 0 1 1.317.563l.563-1.386a4.779 4.779 0 0 0-1.468-.631 6.892 6.892 0 0 0-1.73-.22c-.84 0-1.552.128-2.133.384-.58.257-1.015.602-1.304 1.036a2.563 2.563 0 0 0-.432 1.448c0 .631.163 1.132.487 1.503.325.37.714.642 1.167.816.453.174 1.045.348 1.777.522.521.128.933.242 1.235.343.302.1.55.24.748.418a.877.877 0 0 1 .295.68c0 .374-.177.676-.529.905-.352.229-.885.343-1.598.343-.577 0-1.15-.098-1.722-.295-.572-.197-1.055-.45-1.448-.762l-.618 1.386c.403.348.95.627 1.64.837.69.21 1.407.316 2.148.316Z" fill="#243D48" fill-rule="nonzero" opacity=".8"/><path d="M5.92 63.946v-9.094h7.735c3.676 0 6.557-.87 8.642-2.613 2.085-1.742 3.127-4.15 3.127-7.222s-1.042-5.486-3.127-7.242c-2.085-1.756-4.966-2.633-8.642-2.633H2.875v28.804h3.044Zm7.653-11.769H5.919V37.775h7.654c2.853 0 5.034.624 6.543 1.872 1.509 1.249 2.263 3.039 2.263 5.37 0 2.277-.754 4.04-2.263 5.288-1.51 1.248-3.69 1.872-6.543 1.872Zm22.419 11.77V33.412H33.07v30.533h2.922Zm15.506.205c1.756 0 3.271-.316 4.547-.947 1.276-.63 2.243-1.508 2.901-2.633v3.374h2.798V50.531c0-2.77-.754-4.862-2.263-6.275-1.509-1.413-3.676-2.119-6.502-2.119-1.7 0-3.319.254-4.855.761-1.536.508-2.853 1.228-3.95 2.16l1.316 2.181c.905-.795 1.99-1.42 3.251-1.872a11.611 11.611 0 0 1 3.95-.679c2.003 0 3.525.487 4.568 1.461 1.042.974 1.564 2.394 1.564 4.259v1.317H51.95c-2.908 0-5.027.562-6.358 1.687-1.33 1.125-1.996 2.606-1.996 4.444 0 1.893.714 3.415 2.14 4.568 1.427 1.152 3.347 1.728 5.761 1.728Zm.453-2.305c-1.729 0-3.073-.363-4.033-1.09-.96-.727-1.44-1.721-1.44-2.983 0-2.579 1.852-3.868 5.555-3.868h6.79v3.538c-.577 1.427-1.454 2.517-2.634 3.272-1.18.754-2.592 1.131-4.238 1.131Zm25.834 2.305c.878 0 1.721-.13 2.53-.391.81-.26 1.489-.638 2.038-1.132l-1.03-2.098a4.348 4.348 0 0 1-1.46.823 5.375 5.375 0 0 1-1.749.288c-1.207 0-2.133-.336-2.777-1.008-.645-.673-.967-1.653-.967-2.943v-12.92h6.584V42.3H74.37V37.57h-2.922v4.733H67.58v2.469h3.868v13.085c0 2.003.549 3.553 1.646 4.65 1.097 1.097 2.661 1.646 4.691 1.646Zm14.56-.206V44.771h6.583V42.3h-6.666v-2.55c0-1.345.323-2.36.967-3.046.645-.686 1.598-1.028 2.86-1.028 1.29 0 2.36.356 3.21 1.07l.987-2.182c-.52-.438-1.165-.774-1.934-1.008a8.17 8.17 0 0 0-2.386-.35c-2.085 0-3.697.577-4.835 1.729-1.139 1.152-1.708 2.716-1.708 4.69v2.676h-3.868v2.469h3.868v19.175h2.922Zm20.279.206c2.085 0 3.964-.473 5.637-1.42a10.207 10.207 0 0 0 3.93-3.93c.947-1.673 1.42-3.566 1.42-5.678 0-2.113-.473-4.005-1.42-5.679a10.063 10.063 0 0 0-3.93-3.909c-1.673-.933-3.552-1.399-5.637-1.399-2.085 0-3.964.466-5.638 1.399a10.206 10.206 0 0 0-3.95 3.91c-.96 1.673-1.44 3.565-1.44 5.678 0 2.112.48 4.005 1.44 5.678a10.353 10.353 0 0 0 3.95 3.93c1.674.947 3.553 1.42 5.638 1.42Zm0-2.593c-1.536 0-2.915-.35-4.136-1.049-1.22-.7-2.18-1.694-2.88-2.983-.7-1.29-1.05-2.757-1.05-4.403 0-1.646.35-3.114 1.05-4.403.7-1.29 1.66-2.284 2.88-2.983 1.221-.7 2.6-1.05 4.136-1.05s2.915.35 4.135 1.05c1.221.7 2.174 1.694 2.86 2.983.686 1.29 1.029 2.757 1.029 4.403 0 1.646-.343 3.113-1.029 4.403-.686 1.29-1.639 2.284-2.86 2.983-1.22.7-2.599 1.05-4.135 1.05Zm21.143 2.387V52.918c0-2.524.645-4.485 1.934-5.884 1.29-1.4 3.073-2.099 5.35-2.099l.7.041v-2.839c-2.003 0-3.684.37-5.042 1.111-1.357.74-2.38 1.838-3.065 3.292v-4.238h-2.798v21.644h2.921Zm17.44 0V52.59c0-2.442.652-4.355 1.955-5.74 1.303-1.386 3.065-2.078 5.288-2.078 2.002 0 3.545.59 4.629 1.769 1.083 1.18 1.625 2.894 1.625 5.144v12.262h2.922V52.59c0-2.442.644-4.355 1.934-5.74 1.29-1.386 3.059-2.078 5.308-2.078 1.975 0 3.505.59 4.588 1.769 1.084 1.18 1.626 2.894 1.626 5.144v12.262h2.921v-12.55c0-3.045-.775-5.35-2.325-6.914-1.55-1.563-3.683-2.345-6.398-2.345-1.92 0-3.628.405-5.123 1.214-1.496.81-2.64 1.927-3.436 3.354-.659-1.51-1.653-2.648-2.984-3.416-1.33-.768-2.9-1.152-4.711-1.152-1.784 0-3.36.357-4.733 1.07a7.807 7.807 0 0 0-3.21 3.045v-3.95h-2.797v21.644h2.921Z" fill="#243D48" fill-rule="nonzero"/></g></svg>